<svg width="256" height="256" viewBox="0 0 256 256" xmlns="http://www.w3.org/2000/svg"><circle cx="128" cy="128" r="128" fill="#0d1a22" fill-rule="evenodd" style="paint-order:stroke fill markers"/><path d="m128 89c7.1797 0 13 5.8203 13 13v22.75h-26v-22.75c0-7.1797 5.8203-13 13-13zm-8 78c0-4.4183 3.5817-8 8-8s8 3.5817 8 8c0 2.869-1.5102 5.3852-3.779 6.7971l2.279 15.953h-13l2.279-15.953c-2.2688-1.4119-3.779-3.9281-3.779-6.7971z" fill="#00aeff" style="mix-blend-mode:normal"/><path d="m196.25 102v107.25m-136.5-107.25v107.25m125.12-108.25v108.25m-113.75-53.44v53.44m0-107.25v41.594m102.38-41.594v107.25m-91-72.65v72.65m0-90.306v7.865m79.625 9.7524v72.689m0-87.711v5.765m-1e-5 -25.304 1e-5 8.7993m-68.25-8.7993v107.25m-34.125-107.25c-0.39214-16.664 5.3103-32.591 15.589-45.052m12.913-12.059c1.6566-1.1859 3.3748-2.3037 5.1516-3.3482 21.356-12.554 47.838-12.554 69.194 0 21.356 12.554 34.236 35.693 33.653 60.459m-125.12 0c-0.58326-20.702 10.128-40.085 27.965-50.608s39.983-10.523 57.82 0c13.061 7.7052 22.301 20.161 26.084 34.407m-100.49 16.201c-0.58391-16.636 7.9584-32.265 22.276-40.756 14.318-8.4913 32.129-8.4913 46.447 0 0.95311 0.56524 1.8806 1.1621 2.7816 1.7888m11.285 11.25c5.5797 7.9675 8.5634 17.659 8.2103 27.718m-91 0v5.8352m11.375-5.8352c-0.25737-5.5304 0.83208-10.926 3.0527-15.785m6.2856-9.313c2.1115-2.2264 4.5412-4.1868 7.2492-5.8067 10.799-6.4602 24.276-6.4602 35.075 0s17.172 18.334 16.588 30.905m-11.375 40.625v66.625m0-107.25v29.25m-45.5-29.25v107.25m0-107.25c-0.58708-8.5025 3.6161-16.623 10.897-21.053 7.281-4.4298 16.425-4.4298 23.706 0 7.281 4.4298 11.484 12.55 10.897 21.053" fill="none" stroke="#00aeff" stroke-linecap="round" stroke-linejoin="round" stroke-width="4" style="mix-blend-mode:normal"/></svg>